<svg width="265" height="69" viewBox="0 0 265 69" fill="none" xmlns="http://www.w3.org/2000/svg">
<path d="M130.703 22.9943C130.703 22.7954 130.768 22.6231 130.898 22.4772C131.041 22.3314 131.217 22.2585 131.426 22.2585C131.634 22.2585 131.81 22.3314 131.953 22.4772C132.097 22.6098 132.168 22.7822 132.168 22.9943V24.2869C132.168 24.499 132.097 24.678 131.953 24.8238C131.81 24.9697 131.634 25.0426 131.426 25.0426C131.217 25.0426 131.041 24.9697 130.898 24.8238C130.768 24.678 130.703 24.499 130.703 24.2869V22.9943ZM131.445 29.4176C131.654 29.4176 131.823 29.4905 131.953 29.6363C132.097 29.7822 132.168 29.9611 132.168 30.1733L132.07 49.0454V49.0653C132.07 49.5558 131.829 49.8011 131.348 49.8011C130.852 49.8011 130.605 49.5492 130.605 49.0454L130.703 30.1733C130.703 29.9611 130.774 29.7822 130.918 29.6363C131.061 29.4905 131.237 29.4176 131.445 29.4176Z" fill="#7A7675"/>
<path d="M136.858 30.213V30.1931C136.858 29.9545 136.936 29.7755 137.092 29.6562C137.249 29.5369 137.418 29.4772 137.6 29.4772C137.783 29.4772 137.945 29.5369 138.089 29.6562C138.245 29.7755 138.323 29.9545 138.323 30.1931V34.7272C139.092 33.1894 140.108 31.9233 141.371 30.9289C142.635 29.9346 144.074 29.4375 145.69 29.4375C147.487 29.4375 148.959 29.8683 150.106 30.7301C151.252 31.5918 152.092 32.7585 152.626 34.2301C153.174 35.6884 153.447 37.3191 153.447 39.1221V49.0653C153.447 49.3039 153.369 49.4829 153.213 49.6022C153.069 49.7216 152.906 49.7812 152.724 49.7812C152.542 49.7812 152.372 49.7216 152.216 49.6022C152.06 49.4829 151.982 49.3039 151.982 49.0653V39.1221C151.982 37.5975 151.773 36.2187 151.356 34.9858C150.939 33.7528 150.275 32.7717 149.363 32.0426C148.464 31.3134 147.272 30.9488 145.787 30.9488C144.42 30.9488 143.169 31.3532 142.036 32.1619C140.902 32.9574 139.997 33.9782 139.32 35.2244C138.655 36.4574 138.323 37.7433 138.323 39.0824L138.362 49.1051C138.362 49.3437 138.284 49.5227 138.128 49.642C137.972 49.7746 137.802 49.8409 137.62 49.8409C137.437 49.8409 137.268 49.7746 137.112 49.642C136.968 49.5227 136.897 49.3437 136.897 49.1051L136.858 30.213Z" fill="#7A7675"/>
<path d="M176.563 22.2386C176.771 22.2386 176.947 22.3115 177.09 22.4574C177.234 22.6032 177.305 22.7822 177.305 22.9943C177.305 27.3428 177.299 31.6913 177.286 36.0397C177.286 40.3882 177.286 44.7367 177.286 49.0852C177.286 49.2973 177.214 49.4697 177.071 49.6022C176.927 49.7481 176.752 49.821 176.543 49.821C176.061 49.821 175.82 49.5757 175.82 49.0852V36.0994L159.661 36.1193L159.68 49.0454C159.68 49.2575 159.609 49.4365 159.465 49.5824C159.335 49.7282 159.166 49.8011 158.957 49.8011C158.462 49.8011 158.215 49.6022 158.215 49.2045V49.0454L158.156 22.9943C158.156 22.7954 158.228 22.6231 158.371 22.4772C158.514 22.3181 158.69 22.2386 158.899 22.2386C159.107 22.2386 159.276 22.3115 159.407 22.4574C159.55 22.6032 159.622 22.7822 159.622 22.9943L159.641 34.6278H159.661L175.82 34.6079L175.84 22.9943C175.84 22.7822 175.905 22.6032 176.035 22.4574C176.178 22.3115 176.354 22.2386 176.563 22.2386Z" fill="#7A7675"/>
<path d="M190.651 29.4375C192.006 29.4375 193.276 29.7092 194.461 30.2528C195.647 30.7831 196.689 31.5255 197.588 32.4801C198.499 33.4214 199.209 34.5019 199.717 35.7216C200.225 36.9413 200.479 38.2405 200.479 39.6193C200.479 40.9981 200.219 42.3039 199.698 43.5369C199.19 44.7566 198.486 45.8371 197.588 46.7784C196.689 47.7197 195.647 48.4621 194.461 49.0056C193.276 49.536 192.006 49.8011 190.651 49.8011C188.853 49.8011 187.205 49.3371 185.707 48.4091C184.222 47.4678 183.037 46.2282 182.151 44.6903C181.265 43.1392 180.822 41.4488 180.822 39.6193C180.822 37.7765 181.265 36.0861 182.151 34.5483C183.037 33.0104 184.222 31.7774 185.707 30.8494C187.205 29.9081 188.853 29.4375 190.651 29.4375ZM190.651 30.9289C189.114 30.9289 187.713 31.3267 186.45 32.1221C185.186 32.9176 184.177 33.9782 183.421 35.3039C182.666 36.6164 182.288 38.0549 182.288 39.6193C182.288 41.1837 182.666 42.6288 183.421 43.9545C184.177 45.267 185.186 46.321 186.45 47.1164C187.713 47.9119 189.114 48.3096 190.651 48.3096C192.188 48.3096 193.588 47.9119 194.852 47.1164C196.116 46.321 197.125 45.267 197.881 43.9545C198.636 42.6288 199.014 41.1837 199.014 39.6193C199.014 38.0549 198.636 36.6164 197.881 35.3039C197.125 33.9914 196.116 32.9375 194.852 32.142C193.588 31.3333 192.188 30.9289 190.651 30.9289Z" fill="#7A7675"/>
<path d="M220.977 48.9858V49.0056C220.977 49.2443 220.899 49.4233 220.742 49.5426C220.586 49.6619 220.417 49.7216 220.234 49.7216C220.052 49.7216 219.883 49.6619 219.726 49.5426C219.583 49.4233 219.511 49.2443 219.511 49.0056V44.4716C218.743 46.0094 217.727 47.2755 216.463 48.2699C215.212 49.2642 213.773 49.7613 212.145 49.7613C210.347 49.7613 208.875 49.3305 207.729 48.4687C206.595 47.607 205.755 46.4469 205.208 44.9886C204.661 43.517 204.387 41.8797 204.387 40.0767V30.1335C204.387 29.8949 204.459 29.7159 204.602 29.5966C204.759 29.4772 204.928 29.4176 205.11 29.4176C205.293 29.4176 205.462 29.4772 205.618 29.5966C205.775 29.7159 205.853 29.8949 205.853 30.1335V40.0767C205.853 41.588 206.055 42.9668 206.459 44.213C206.875 45.446 207.54 46.427 208.452 47.1562C209.364 47.8854 210.562 48.25 212.047 48.25C213.428 48.25 214.678 47.8522 215.799 47.0568C216.932 46.2481 217.831 45.2206 218.495 43.9744C219.173 42.7282 219.511 41.4422 219.511 40.1164L219.472 30.0937C219.472 29.8551 219.55 29.6761 219.707 29.5568C219.863 29.4242 220.032 29.3579 220.215 29.3579C220.397 29.3579 220.56 29.4242 220.703 29.5568C220.86 29.6761 220.938 29.8551 220.938 30.0937L220.977 48.9858Z" fill="#7A7675"/>
<path d="M234.225 29.3977C235.931 29.3977 237.468 29.7623 238.836 30.4914C240.217 31.2074 241.246 32.2017 241.923 33.4744C241.976 33.5805 242.002 33.6931 242.002 33.8125C242.002 33.9981 241.93 34.1638 241.787 34.3096C241.656 34.4422 241.5 34.5085 241.318 34.5085C241.044 34.5085 240.842 34.3825 240.712 34.1306C240.165 33.07 239.312 32.2481 238.152 31.6647C236.993 31.0814 235.684 30.7897 234.225 30.7897C233.469 30.7897 232.668 30.8759 231.821 31.0483C230.988 31.2074 230.2 31.4592 229.457 31.8039C228.728 32.1486 228.128 32.5994 227.659 33.1562C227.203 33.713 226.975 34.3892 226.975 35.1846C226.975 35.9138 227.203 36.4971 227.659 36.9346C228.128 37.3589 228.623 37.6837 229.144 37.9091C230.16 38.3333 231.255 38.5985 232.427 38.7045C233.613 38.7973 234.804 38.8835 236.003 38.963C237.214 39.0426 238.354 39.2746 239.422 39.6591C240.269 39.9507 241.038 40.4346 241.728 41.1108C242.418 41.7869 242.764 42.7017 242.764 43.8551C242.764 45.2471 242.34 46.3806 241.494 47.2556C240.66 48.1306 239.592 48.7736 238.289 49.1846C236.999 49.5824 235.677 49.7812 234.322 49.7812C232.316 49.7812 230.512 49.4034 228.91 48.6477C227.321 47.8788 226.142 46.7452 225.373 45.2471C225.321 45.1411 225.295 45.035 225.295 44.9289C225.295 44.7433 225.36 44.5842 225.49 44.4517C225.634 44.3058 225.797 44.2329 225.979 44.2329C226.266 44.2329 226.467 44.3589 226.585 44.6108C227.236 45.8967 228.246 46.8513 229.613 47.4744C230.981 48.0842 232.551 48.3892 234.322 48.3892C235.43 48.3892 236.524 48.2433 237.605 47.9517C238.686 47.66 239.585 47.1827 240.302 46.5199C241.031 45.8437 241.396 44.9555 241.396 43.8551C241.396 43.0464 241.142 42.4166 240.634 41.9659C240.139 41.5151 239.585 41.1837 238.973 40.9716C237.892 40.5871 236.752 40.3551 235.553 40.2755C234.355 40.1827 233.163 40.0899 231.978 39.9971C230.792 39.8911 229.672 39.6259 228.617 39.2017C227.874 38.8967 227.184 38.4128 226.546 37.75C225.92 37.0871 225.608 36.232 225.608 35.1846C225.608 34.1505 225.868 33.2689 226.389 32.5397C226.923 31.8106 227.614 31.214 228.46 30.75C229.32 30.286 230.252 29.9479 231.255 29.7358C232.271 29.5104 233.261 29.3977 234.225 29.3977Z" fill="#7A7675"/>
<path d="M256.422 49.9801C254.533 49.9801 252.82 49.5028 251.283 48.5483C249.759 47.5805 248.541 46.2945 247.629 44.6903C246.73 43.0861 246.281 41.3295 246.281 39.4204C246.281 37.6041 246.704 35.927 247.551 34.3892C248.411 32.838 249.564 31.5918 251.009 30.6505C252.468 29.696 254.097 29.2187 255.894 29.2187C257.549 29.2187 259.066 29.6363 260.447 30.4716C261.828 31.3068 262.929 32.427 263.749 33.8324C264.583 35.2244 265 36.7822 265 38.5056C265 38.8769 264.967 39.2282 264.902 39.5596C264.837 39.8911 264.616 40.0568 264.238 40.0568L247.766 40.0767C247.883 41.588 248.326 42.9801 249.095 44.2528C249.876 45.5255 250.899 46.553 252.162 47.3352C253.426 48.1041 254.839 48.4886 256.402 48.4886C257.653 48.4886 258.865 48.2102 260.037 47.6534C261.222 47.0833 262.212 46.3077 263.007 45.3267C263.15 45.1411 263.346 45.0483 263.593 45.0483C263.802 45.0483 263.971 45.1212 264.101 45.267C264.244 45.4128 264.316 45.5918 264.316 45.8039C264.316 45.9763 264.257 46.1354 264.14 46.2812C263.202 47.4479 262.049 48.356 260.682 49.0056C259.314 49.6553 257.894 49.9801 256.422 49.9801ZM263.535 38.5255C263.535 37.0805 263.183 35.768 262.479 34.588C261.789 33.4081 260.864 32.4668 259.705 31.7642C258.545 31.0615 257.269 30.7102 255.875 30.7102C254.416 30.7102 253.1 31.0748 251.928 31.8039C250.755 32.5331 249.805 33.4943 249.075 34.6875C248.346 35.8806 247.916 37.1799 247.785 38.5852L263.535 38.5653V38.5255Z" fill="#7A7675"/>
<path fill-rule="evenodd" clip-rule="evenodd" d="M75.6772 5.20922C76.4159 5.48211 76.7936 6.30223 76.5207 7.04101L55.7448 63.2874C55.562 63.7824 55.1207 64.136 54.5978 64.2065C54.0749 64.2771 53.5557 64.0531 53.2482 63.6243L45.6378 53.0105C45.1788 52.3705 45.3257 51.4796 45.9657 51.0207C46.6057 50.5617 47.4966 50.7086 47.9556 51.3486L54.0004 59.7789L73.8454 6.0528C74.1182 5.31402 74.9384 4.93633 75.6772 5.20922Z" fill="url(#paint0_linear)"/>
<path d="M1.99998 23.571C1.99998 23.1468 2.14327 22.7822 2.42985 22.4772C2.72946 22.1723 3.08118 22.0199 3.485 22.0199L23.0444 22.0199C23.4482 22.0199 23.7934 22.1591 24.08 22.4375C24.3666 22.7026 24.5099 23.0407 24.5099 23.4517C24.5099 23.8627 24.3666 24.2272 24.08 24.5454C23.7934 24.8504 23.4417 25.0028 23.0248 25.0028L14.7009 25.0028L14.7009 48.4091C14.7009 48.8201 14.5511 49.1714 14.2515 49.463C13.9518 49.7547 13.6001 49.9005 13.1963 49.9005C12.7925 49.9005 12.4538 49.7547 12.1802 49.463C11.9067 49.1714 11.7699 48.8201 11.7699 48.4091L11.7699 25.0028L3.46547 25.0028C3.06164 25.0028 2.71644 24.8702 2.42985 24.6051C2.14327 24.3267 1.99998 23.982 1.99998 23.571Z" fill="url(#paint1_linear)"/>
<path d="M40.4544 22C42.3693 22 44.1214 22.3579 45.7106 23.0738C47.3129 23.7897 48.6937 24.7907 49.853 26.0767C51.0124 27.3627 51.9047 28.8608 52.53 30.571C53.1683 32.268 53.4875 34.1041 53.4875 36.0795C53.4875 38.7178 52.9403 41.0909 51.8461 43.1988C50.7519 45.2935 49.2278 46.9507 47.2738 48.1704C45.3198 49.3901 43.0467 50 40.4544 50C37.823 50 35.5303 49.3968 33.5764 48.1903C31.6224 46.9706 30.1113 45.3134 29.0431 43.2187C27.9749 41.124 27.4409 38.7443 27.4409 36.0795C27.4409 34.1439 27.76 32.3276 28.3983 30.6307C29.0366 28.9204 29.9354 27.4223 31.0948 26.1363C32.2672 24.8371 33.648 23.8229 35.2372 23.0937C36.8265 22.3646 38.5655 22 40.4544 22ZM40.4544 25.0426C38.4222 25.0426 36.6506 25.5265 35.1395 26.4943C33.6285 27.4488 32.4561 28.7613 31.6224 30.4318C30.7887 32.089 30.3718 33.9716 30.3718 36.0795C30.3718 37.5379 30.6258 38.9233 31.1339 40.2358C31.6549 41.535 32.3714 42.695 33.2833 43.7159C34.2081 44.7235 35.2763 45.5189 36.4878 46.1022C37.7123 46.6856 39.0345 46.9772 40.4544 46.9772C41.8613 46.9772 43.1769 46.6723 44.4014 46.0625C45.639 45.4526 46.7202 44.6307 47.645 43.5966C48.583 42.5625 49.3124 41.3958 49.8335 40.0966C50.3546 38.7973 50.6151 37.4583 50.6151 36.0795C50.6151 33.892 50.1657 31.9697 49.2669 30.3125C48.381 28.6553 47.1696 27.3627 45.6324 26.4346C44.1083 25.5066 42.3823 25.0426 40.4544 25.0426Z" fill="url(#paint2_linear)"/>
<path d="M82.4197 22.0397C84.8036 22.0265 86.8683 22.4176 88.6138 23.213C90.3594 24.0085 91.7988 25.0824 92.9321 26.4346C94.0785 27.7869 94.9317 29.3049 95.4919 30.9886C96.052 32.6723 96.3321 34.3958 96.3321 36.1591C96.3321 37.856 96.0781 39.5066 95.57 41.1108C95.075 42.7017 94.3325 44.1401 93.3425 45.4261C92.3655 46.7121 91.1605 47.7329 89.7276 48.4886C88.2947 49.2443 86.6403 49.6288 84.7645 49.642L75.4244 49.6022C75.0336 49.589 74.695 49.4498 74.4084 49.1846C74.1218 48.9195 73.9785 48.5814 73.9785 48.1704L74.1153 23.6505C74.1153 23.2528 74.2521 22.8949 74.5256 22.5767C74.8122 22.2585 75.1509 22.0928 75.5417 22.0795L82.4197 22.0397ZM93.6356 35.7216C93.6356 33.1496 93.095 31.0682 92.0138 29.4772C90.9456 27.8863 89.441 26.7329 87.5001 26.017C85.5591 25.3011 83.299 24.9763 80.7197 25.0426L77.0267 25.1221L76.9095 46.6988L82.2243 46.7386C85.976 46.7916 88.8157 45.8968 90.7437 44.054C92.6716 42.2111 93.6356 39.4337 93.6356 35.7216Z" fill="url(#paint3_linear)"/>
<path d="M113.254 22C115.168 22 116.921 22.3579 118.51 23.0738C120.112 23.7897 121.493 24.7907 122.652 26.0767C123.812 27.3627 124.704 28.8608 125.329 30.571C125.968 32.268 126.287 34.1041 126.287 36.0795C126.287 38.7178 125.74 41.0909 124.645 43.1988C123.551 45.2935 122.027 46.9507 120.073 48.1704C118.119 49.3901 115.846 50 113.254 50C110.622 50 108.33 49.3968 106.376 48.1903C104.422 46.9706 102.91 45.3134 101.842 43.2187C100.774 41.124 100.24 38.7443 100.24 36.0795C100.24 34.1439 100.559 32.3276 101.198 30.6307C101.836 28.9204 102.735 27.4223 103.894 26.1363C105.066 24.8371 106.447 23.8229 108.036 23.0937C109.626 22.3646 111.365 22 113.254 22ZM113.254 25.0426C111.221 25.0426 109.45 25.5265 107.939 26.4943C106.428 27.4488 105.255 28.7613 104.422 30.4318C103.588 32.089 103.171 33.9716 103.171 36.0795C103.171 37.5379 103.425 38.9233 103.933 40.2358C104.454 41.535 105.171 42.695 106.082 43.7159C107.007 44.7235 108.076 45.5189 109.287 46.1022C110.511 46.6856 111.834 46.9772 113.254 46.9772C114.66 46.9772 115.976 46.6723 117.201 46.0625C118.438 45.4526 119.519 44.6307 120.444 43.5966C121.382 42.5625 122.112 41.3958 122.633 40.0966C123.154 38.7973 123.414 37.4583 123.414 36.0795C123.414 33.892 122.965 31.9697 122.066 30.3125C121.18 28.6553 119.969 27.3627 118.432 26.4346C116.908 25.5066 115.182 25.0426 113.254 25.0426Z" fill="url(#paint4_linear)"/>
<defs>
<linearGradient id="paint0_linear" x1="132" y1="32.5" x2="5.99999" y2="30.5" gradientUnits="userSpaceOnUse">
<stop stop-color="#4B4194"/>
<stop offset="0.479167" stop-color="#E3197E"/>
<stop offset="1" stop-color="#F08205"/>
</linearGradient>
<linearGradient id="paint1_linear" x1="132" y1="32.5" x2="5.99999" y2="30.5" gradientUnits="userSpaceOnUse">
<stop stop-color="#4B4194"/>
<stop offset="0.479167" stop-color="#E3197E"/>
<stop offset="1" stop-color="#F08205"/>
</linearGradient>
<linearGradient id="paint2_linear" x1="132" y1="32.5" x2="5.99999" y2="30.5" gradientUnits="userSpaceOnUse">
<stop stop-color="#4B4194"/>
<stop offset="0.479167" stop-color="#E3197E"/>
<stop offset="1" stop-color="#F08205"/>
</linearGradient>
<linearGradient id="paint3_linear" x1="132" y1="32.5" x2="5.99999" y2="30.5" gradientUnits="userSpaceOnUse">
<stop stop-color="#4B4194"/>
<stop offset="0.479167" stop-color="#E3197E"/>
<stop offset="1" stop-color="#F08205"/>
</linearGradient>
<linearGradient id="paint4_linear" x1="132" y1="32.5" x2="5.99999" y2="30.5" gradientUnits="userSpaceOnUse">
<stop stop-color="#4B4194"/>
<stop offset="0.479167" stop-color="#E3197E"/>
<stop offset="1" stop-color="#F08205"/>
</linearGradient>
</defs>
</svg>
